<svg width="55" height="55" viewBox="0 0 55 55" fill="none" xmlns="http://www.w3.org/2000/svg">
<path d="M32.6586 40.1094V50.4262L27.5002 47.847L22.3418 50.4262V40.1094" stroke="#F4F4F4" stroke-width="1.5" stroke-linecap="round" stroke-linejoin="round"/>
<path fill-rule="evenodd" clip-rule="evenodd" d="M18.8338 34.0042L20.0534 35.609L20.3171 37.5921C20.4637 38.6919 21.3289 39.5571 22.4286 39.7036L24.4163 39.9696L26.0074 41.187C26.8881 41.8565 28.1071 41.8565 28.9878 41.187L30.5926 39.9696V39.9696L32.578 39.7036C33.6783 39.5573 34.5443 38.6922 34.6918 37.5921L34.9578 35.6044C34.9578 35.6044 35.5722 34.7997 36.1752 34.0133C36.8447 33.1327 36.8447 31.9136 36.1752 31.0329L34.9578 29.4281L34.6918 27.445C34.5465 26.3451 33.6822 25.4789 32.5826 25.3312L30.5926 25.0675L28.9878 23.8524C28.1079 23.1806 26.8873 23.1806 26.0074 23.8524L24.4026 25.0675V25.0675L22.4171 25.3312C21.317 25.477 20.4514 26.3426 20.3056 27.4427L20.0397 29.4304L18.8223 31.0215C18.1566 31.9057 18.1612 33.1251 18.8338 34.0042V34.0042Z" stroke="#F4F4F4" stroke-width="1.5" stroke-linecap="round" stroke-linejoin="round"/>
<path d="M38.9629 43.5484H43.5482C46.0805 43.5484 48.1334 41.4955 48.1334 38.9631V12.8112C48.1334 10.2788 46.0805 8.22594 43.5482 8.22594H11.4515C8.91909 8.22594 6.86621 10.2788 6.86621 12.8112V38.9631C6.86621 41.4955 8.91909 43.5484 11.4515 43.5484H16.0367" stroke="#F4F4F4" stroke-width="1.5" stroke-linecap="round" stroke-linejoin="round"/>
<path d="M17.1836 16.0369H37.8172" stroke="#F4F4F4" stroke-width="1.5" stroke-linecap="round" stroke-linejoin="round"/>
</svg>
