<svg width="390" height="74" viewBox="0 0 390 74" fill="none" xmlns="http://www.w3.org/2000/svg">
<g clip-path="url(#clip0_560_57051)">
<path fill-rule="evenodd" clip-rule="evenodd" d="M381.149 41.0654C381.149 39.5764 380.77 38.3985 380.015 37.5388C379.262 36.679 378.236 36.2459 376.952 36.2459C375.654 36.2459 374.628 36.679 373.875 37.5388C373.129 38.3985 372.755 39.5759 372.755 41.0654C372.755 42.5612 373.129 43.7391 373.868 44.5921C374.609 45.4452 375.642 45.8714 376.952 45.8714C378.25 45.8714 379.276 45.4446 380.029 44.5921C380.777 43.7395 381.149 42.5617 381.149 41.0654ZM388.201 41.0654C388.201 42.5071 387.916 43.8812 387.353 45.1745C386.789 46.474 385.974 47.6379 384.894 48.6672C383.807 49.6962 382.59 50.4811 381.246 51.0094C379.894 51.5371 378.468 51.8011 376.952 51.8011C375.412 51.8011 373.972 51.5371 372.626 51.0094C371.274 50.4811 370.073 49.6962 369.012 48.6672C367.946 47.6586 367.138 46.5079 366.581 45.2082C366.025 43.9014 365.745 42.5212 365.745 41.0654C365.745 39.6035 366.025 38.2222 366.574 36.9225C367.124 35.6298 367.932 34.4655 369.012 33.4302C370.059 32.4147 371.255 31.6429 372.605 31.1286C373.951 30.6144 375.398 30.3569 376.952 30.3569C378.508 30.3569 379.955 30.6141 381.293 31.1286C382.632 31.6429 383.833 32.4147 384.894 33.4302C385.986 34.4794 386.808 35.6505 387.365 36.9433C387.922 38.2362 388.201 39.6174 388.201 41.0654Z" fill="white"/>
<path fill-rule="evenodd" clip-rule="evenodd" d="M362.525 37.5869C361.832 36.978 361.173 36.5377 360.536 36.2599C359.896 35.9824 359.231 35.8403 358.525 35.8403C357.118 35.8403 355.997 36.3008 355.17 37.228C354.341 38.1549 353.927 39.4077 353.927 40.9981C353.927 42.5278 354.361 43.7535 355.225 44.667C356.087 45.5809 357.241 46.0342 358.702 46.0342C359.422 46.0342 360.093 45.8921 360.725 45.6074C361.358 45.3233 361.955 44.8835 362.525 44.288V50.4135C361.677 50.8871 360.827 51.2394 359.979 51.4627C359.129 51.6855 358.254 51.8011 357.35 51.8011C354.259 51.8011 351.754 50.8127 349.838 48.8365C347.915 46.8597 346.958 44.2537 346.958 41.0317C346.958 37.8978 347.936 35.3321 349.893 33.3422C351.854 31.352 354.361 30.3569 357.432 30.3569C358.451 30.3569 359.375 30.4584 360.197 30.6546C361.019 30.8508 361.798 31.1689 362.525 31.6091V37.5869Z" fill="white"/>
<path fill-rule="evenodd" clip-rule="evenodd" d="M335.222 24.7524C335.222 23.6828 335.602 22.7761 336.369 22.0246C337.13 21.2736 338.046 20.8942 339.127 20.8942C340.242 20.8942 341.171 21.2664 341.919 22.0044C342.672 22.7423 343.047 23.6558 343.047 24.7524C343.047 25.849 342.665 26.7765 341.898 27.5415C341.137 28.3062 340.214 28.6922 339.127 28.6922C338.061 28.6922 337.144 28.2999 336.376 27.5211C335.609 26.7426 335.222 25.8219 335.222 24.7524ZM335.588 51.0296V31.0068H342.679V51.0296H335.588Z" fill="white"/>
<path fill-rule="evenodd" clip-rule="evenodd" d="M323.83 41.0384C323.83 39.4813 323.416 38.2493 322.587 37.349C321.765 36.4486 320.63 36.002 319.204 36.002C317.771 36.002 316.643 36.4486 315.822 37.349C315 38.2493 314.592 39.4813 314.592 41.0384C314.592 42.6087 315 43.8407 315.815 44.734C316.629 45.6275 317.757 46.0742 319.204 46.0742C320.63 46.0742 321.765 45.6275 322.587 44.7271C323.416 43.8272 323.83 42.5952 323.83 41.0384ZM330.119 20.2845V51.0293H323.591V47.7802C322.689 49.1271 321.677 50.1353 320.549 50.7989C319.422 51.4692 318.171 51.8008 316.793 51.8008C313.967 51.8008 311.719 50.8259 310.047 48.8835C308.377 46.941 307.541 44.3211 307.541 41.0317C307.541 37.8434 308.377 35.2645 310.042 33.3017C311.705 31.3386 313.872 30.3574 316.549 30.3574C318.247 30.3574 319.633 30.6619 320.699 31.2713C321.765 31.8807 322.715 32.9025 323.551 34.3307C323.47 33.8571 323.416 33.3156 323.373 32.713C323.333 32.1108 323.314 31.454 323.314 30.7566V20.2854L330.119 20.2845Z" fill="white"/>
<path fill-rule="evenodd" clip-rule="evenodd" d="M295.967 51.0301V31.0073H303.059V51.0301H295.967ZM305.26 21.3413L299.113 28.2863H296.05L299.669 21.3413H305.26Z" fill="white"/>
<path fill-rule="evenodd" clip-rule="evenodd" d="M277.595 51.0302V31.0076H284.284V35.7256C284.978 33.9992 285.916 32.7131 287.11 31.8538C288.306 30.9941 289.753 30.561 291.452 30.561C291.729 30.561 292.015 30.5676 292.3 30.588C292.586 30.6082 292.871 30.6421 293.162 30.6827L292.47 37.0995C292.049 36.958 291.627 36.8565 291.22 36.7887C290.805 36.7274 290.412 36.6937 290.025 36.6937C288.306 36.6937 286.982 37.2218 286.044 38.2706C285.113 39.3195 284.644 40.8089 284.644 42.7378V51.0299L277.595 51.0302Z" fill="white"/>
<path fill-rule="evenodd" clip-rule="evenodd" d="M272.467 31.0071V41.2281C272.467 43.4894 272.283 45.1675 271.917 46.2578C271.557 47.3476 270.939 48.3153 270.077 49.1615C269.186 50.0484 268.08 50.7114 266.754 51.1445C265.423 51.5847 263.869 51.8013 262.075 51.8013C260.296 51.8013 258.747 51.5847 257.43 51.1445C256.104 50.7114 254.984 50.0478 254.053 49.1615C253.19 48.3423 252.579 47.3815 252.219 46.278C251.859 45.1751 251.684 43.4894 251.684 41.2284V31.0071H258.447V41.6886C258.447 43.3603 258.726 44.572 259.283 45.3235C259.84 46.0683 260.744 46.4405 261.995 46.4405C263.257 46.4405 264.16 46.075 264.71 45.3439C265.261 44.6062 265.539 43.3879 265.539 41.6886V31.0071H272.467Z" fill="white"/>
<path fill-rule="evenodd" clip-rule="evenodd" d="M238.559 21.9907H246.466V40.8424C246.466 42.8867 246.33 44.4638 246.065 45.5604C245.8 46.657 245.366 47.6246 244.755 48.4709C243.945 49.5679 242.955 50.4002 241.773 50.9623C240.591 51.5238 239.267 51.8013 237.8 51.8013C235.965 51.8013 234.335 51.4088 232.909 50.6302C231.476 49.8517 230.246 48.701 229.228 47.1709L234.077 42.7848C234.2 43.6442 234.477 44.3082 234.913 44.7678C235.354 45.2348 235.905 45.4649 236.571 45.4649C237.324 45.4649 237.848 45.0453 238.132 44.2125C238.418 43.3798 238.561 41.2953 238.561 37.9649V21.9907H238.559Z" fill="white"/>
<path fill-rule="evenodd" clip-rule="evenodd" d="M208.442 41.0654C208.442 39.5764 208.063 38.3985 207.308 37.5388C206.554 36.679 205.528 36.2459 204.245 36.2459C202.947 36.2459 201.921 36.679 201.168 37.5388C200.421 38.3985 200.047 39.5759 200.047 41.0654C200.047 42.5612 200.421 43.7391 201.161 44.5921C201.9 45.4452 202.933 45.8714 204.245 45.8714C205.543 45.8714 206.568 45.4446 207.322 44.5921C208.068 43.7395 208.442 42.5617 208.442 41.0654ZM215.492 41.0654C215.492 42.5071 215.207 43.8812 214.643 45.1745C214.08 46.474 213.265 47.6379 212.185 48.6672C211.098 49.6962 209.882 50.4811 208.537 51.0094C207.185 51.5371 205.759 51.8011 204.245 51.8011C202.703 51.8011 201.262 51.5371 199.917 51.0094C198.567 50.4811 197.364 49.6962 196.305 48.6672C195.239 47.6586 194.429 46.5079 193.872 45.2082C193.315 43.9014 193.038 42.5212 193.038 41.0654C193.038 39.6035 193.315 38.2222 193.867 36.9225C194.417 35.6298 195.224 34.4655 196.305 33.4302C197.351 32.4147 198.546 31.6429 199.898 31.1286C201.243 30.6144 202.69 30.3569 204.245 30.3569C205.801 30.3569 207.246 30.6141 208.586 31.1286C209.924 31.6434 211.126 32.4147 212.185 33.4302C213.279 34.4794 214.101 35.6505 214.657 36.9433C215.214 38.2362 215.492 39.6174 215.492 41.0654Z" fill="white"/>
<path d="M188.759 20.2845H181.667V51.0293H188.759V20.2845Z" fill="white"/>
<path fill-rule="evenodd" clip-rule="evenodd" d="M176.375 31.0071V41.2281C176.375 43.4894 176.191 45.1675 175.825 46.2578C175.465 47.3476 174.847 48.3153 173.984 49.1615C173.094 50.0484 171.987 50.7114 170.663 51.1445C169.331 51.5847 167.776 51.8013 165.983 51.8013C164.203 51.8013 162.655 51.5847 161.337 51.1445C160.012 50.7114 158.892 50.0478 157.961 49.1615C157.098 48.3423 156.487 47.3815 156.127 46.278C155.767 45.1751 155.59 43.4894 155.59 41.2284V31.0071H162.356V41.6886C162.356 43.3603 162.634 44.572 163.191 45.3235C163.748 46.0683 164.651 46.4405 165.901 46.4405C167.164 46.4405 168.068 46.075 168.618 45.3439C169.168 44.6062 169.446 43.3879 169.446 41.6886V31.0071H176.375Z" fill="white"/>
<path fill-rule="evenodd" clip-rule="evenodd" d="M151.394 37.5869C150.701 36.978 150.042 36.5377 149.403 36.2599C148.765 35.9824 148.099 35.8403 147.393 35.8403C145.987 35.8403 144.866 36.3008 144.037 37.228C143.208 38.1549 142.794 39.4077 142.794 40.9981C142.794 42.5278 143.229 43.7535 144.092 44.667C144.954 45.5809 146.109 46.0342 147.569 46.0342C148.289 46.0342 148.962 45.8921 149.594 45.6074C150.225 45.3233 150.823 44.8835 151.394 44.288V50.4135C150.545 50.8871 149.695 51.2394 148.847 51.4627C147.997 51.6855 147.122 51.8011 146.218 51.8011C143.127 51.8011 140.621 50.8127 138.705 48.8365C136.784 46.8597 135.826 44.2537 135.826 41.0317C135.826 37.8978 136.804 35.3321 138.76 33.3422C140.723 31.352 143.229 30.3569 146.3 30.3569C147.318 30.3569 148.242 30.4584 149.064 30.6546C149.886 30.8508 150.667 31.1689 151.394 31.6091V37.5869Z" fill="white"/>
<path d="M131.546 20.2845H124.454V51.0293H131.546V20.2845Z" fill="white"/>
<path fill-rule="evenodd" clip-rule="evenodd" d="M112.663 40.9983C112.663 39.4347 112.248 38.2028 111.413 37.2889C110.578 36.3753 109.437 35.922 107.99 35.922C106.543 35.922 105.409 36.3753 104.58 37.2826C103.751 38.1828 103.337 39.4284 103.337 40.9986C103.337 42.5557 103.751 43.7878 104.587 44.6882C105.422 45.5881 106.557 46.0351 107.99 46.0351C109.437 46.0351 110.578 45.5881 111.413 44.6882C112.249 43.7872 112.663 42.5554 112.663 40.9983ZM118.905 31.0073V51.0301H112.384V47.7808C111.454 49.1681 110.415 50.1839 109.253 50.8339C108.092 51.4772 106.726 51.8014 105.164 51.8014C102.482 51.8014 100.342 50.8267 98.7321 48.8774C97.1293 46.9283 96.3276 44.3083 96.3276 41.032C96.3276 37.7629 97.1695 35.1701 98.8476 33.2412C100.526 31.319 102.781 30.3578 105.62 30.3578C107.134 30.3578 108.439 30.6825 109.532 31.3258C110.625 31.969 111.563 32.9569 112.344 34.2971V31.0073H118.905ZM113.933 21.3413L107.786 28.2863H104.723L108.343 21.3413H113.933Z" fill="white"/>
<path fill-rule="evenodd" clip-rule="evenodd" d="M93.3523 23.1287V31.7794C92.2655 30.5744 91.1787 29.6944 90.0986 29.1327C89.0187 28.5707 87.8571 28.2865 86.6277 28.2865C84.3454 28.2865 82.4982 29.0651 81.0849 30.6152C79.6724 32.1651 78.9657 34.1892 78.9657 36.6867C78.9657 39.0154 79.6859 40.9443 81.1257 42.4743C82.566 44.0109 84.3997 44.7759 86.6274 44.7759C87.8567 44.7759 89.0182 44.4984 90.0983 43.9364C91.1782 43.3811 92.265 42.4947 93.3519 41.2831V49.9341C92.0953 50.5431 90.8387 51.0033 89.5958 51.3082C88.346 51.6127 87.0894 51.7615 85.8124 51.7615C84.2232 51.7615 82.7557 51.5721 81.4109 51.2C80.0661 50.821 78.8295 50.2454 77.7024 49.4808C75.5288 48.0255 73.8716 46.1973 72.7304 43.9909C71.5894 41.7778 71.0189 39.2937 71.0189 36.5317C71.0189 34.3114 71.3793 32.294 72.1057 30.4734C72.8259 28.6524 73.919 27.0076 75.373 25.5253C76.7517 24.1107 78.3071 23.0546 80.0394 22.3509C81.7716 21.6537 83.6937 21.3017 85.813 21.3017C87.0898 21.3017 88.3464 21.4506 89.5961 21.755C90.8392 22.0595 92.0957 22.5197 93.3523 23.1287Z" fill="white"/>
<path fill-rule="evenodd" clip-rule="evenodd" d="M7.71571 25.2719V54.751L56.7164 0.994266V73.7631L38.7845 42.7035C36.6489 42.2218 35.0958 40.3127 35.0958 38.0832C35.0958 35.4676 37.2172 33.3462 39.8324 33.3462C42.4482 33.3462 44.5696 35.467 44.5696 38.0832C44.5696 38.3979 44.5382 38.7117 44.4765 39.02L49.9452 48.4911V19.0124L0.944031 72.7688V0L18.876 31.0595C21.0116 31.5407 22.5645 33.4501 22.5645 35.6799C22.5645 38.2955 20.4433 40.4169 17.828 40.4169C15.2118 40.4169 13.0909 38.2955 13.0909 35.6799C13.0909 35.3652 13.1222 35.0519 13.184 34.7435L7.71571 25.2719Z" fill="#3F87F5"/>
</g>
<defs>
<clipPath id="clip0_560_57051">
<rect width="388.134" height="73.7631" fill="white" transform="translate(0.944031)"/>
</clipPath>
</defs>
</svg>
