<svg width="57" height="57" viewBox="0 0 57 57" fill="none" xmlns="http://www.w3.org/2000/svg">
<path fill-rule="evenodd" clip-rule="evenodd" d="M32.0488 48.3953V47.4529C32.0564 44.7717 34.2281 42.6 36.9093 42.5923H44.597C47.2782 42.6 49.4499 44.7717 49.4575 47.4529V48.3953C49.4575 49.0362 48.9379 49.5558 48.2969 49.5558H33.2094C32.5684 49.5558 32.0488 49.0362 32.0488 48.3953Z" stroke="#F4F4F4" stroke-width="1.92642" stroke-linecap="round" stroke-linejoin="round"/>
<path fill-rule="evenodd" clip-rule="evenodd" d="M36.1108 32.1285C36.1211 29.5671 38.2041 27.4979 40.7655 27.5047C43.327 27.5116 45.3989 29.5918 45.3955 32.1532C45.3921 34.7147 43.3147 36.7894 40.7532 36.7894C39.5188 36.7894 38.3352 36.2978 37.464 35.4231C36.5929 34.5485 36.1059 33.3629 36.1108 32.1285V32.1285Z" stroke="#F4F4F4" stroke-width="1.92642" stroke-linecap="round" stroke-linejoin="round"/>
<path d="M7.67648 44.9135C7.67648 47.4774 9.75493 49.5558 12.3188 49.5558" stroke="#F4F4F4" stroke-width="1.92642" stroke-linecap="round" stroke-linejoin="round"/>
<path d="M7.67667 37.95V44.9135" stroke="#F4F4F4" stroke-width="1.92642" stroke-linecap="round" stroke-linejoin="round"/>
<path d="M21.6035 49.5558H12.3188" stroke="#F4F4F4" stroke-width="1.92642" stroke-linecap="round" stroke-linejoin="round"/>
<path d="M7.67648 44.9135C7.67648 47.4774 9.75493 49.5558 12.3188 49.5558" stroke="#F4F4F4" stroke-width="1.92642" stroke-linecap="round" stroke-linejoin="round"/>
<path d="M7.67667 37.95V44.9135" stroke="#F4F4F4" stroke-width="1.92642" stroke-linecap="round" stroke-linejoin="round"/>
<path d="M21.6035 49.5558H12.3188" stroke="#F4F4F4" stroke-width="1.92642" stroke-linecap="round" stroke-linejoin="round"/>
<path d="M7.67648 44.9135C7.67648 47.4774 9.75493 49.5558 12.3188 49.5558" stroke="#F4F4F4" stroke-width="1.92642" stroke-linecap="round" stroke-linejoin="round"/>
<path d="M7.67667 37.95V44.9135" stroke="#F4F4F4" stroke-width="1.92642" stroke-linecap="round" stroke-linejoin="round"/>
<path d="M23.9247 49.5558H12.3188" stroke="#F4F4F4" stroke-width="1.92642" stroke-linecap="round" stroke-linejoin="round"/>
<path fill-rule="evenodd" clip-rule="evenodd" d="M7.67648 28.6653V27.723C7.68413 25.0417 9.85579 22.8701 12.537 22.8624H20.2247C22.9059 22.8701 25.0776 25.0417 25.0852 27.723V28.6653C25.0852 29.3063 24.5656 29.8259 23.9247 29.8259H8.83707C8.19609 29.8259 7.67648 29.3063 7.67648 28.6653Z" stroke="#F4F4F4" stroke-width="1.92642" stroke-linecap="round" stroke-linejoin="round"/>
<path fill-rule="evenodd" clip-rule="evenodd" d="M11.7385 12.3986C11.7488 9.83716 13.8318 7.76804 16.3932 7.77484C18.9547 7.78168 21.0266 9.86188 21.0232 12.4233C21.0198 14.9848 18.9424 17.0595 16.3809 17.0595C15.1465 17.0595 13.9628 16.5679 13.0917 15.6932C12.2206 14.8186 11.7336 13.633 11.7385 12.3986V12.3986Z" stroke="#F4F4F4" stroke-width="1.92642" stroke-linecap="round" stroke-linejoin="round"/>
<path d="M49.4576 12.4891C49.4576 9.92522 47.3791 7.84677 44.8152 7.84677" stroke="#F4F4F4" stroke-width="1.92642" stroke-linecap="round" stroke-linejoin="round"/>
<path d="M49.4576 21.7018V12.4891" stroke="#F4F4F4" stroke-width="1.92642" stroke-linecap="round" stroke-linejoin="round"/>
<path d="M28.567 7.84674H44.8152" stroke="#F4F4F4" stroke-width="1.92642" stroke-linecap="round" stroke-linejoin="round"/>
</svg>
