<svg width="57" height="57" viewBox="0 0 57 57" fill="none" xmlns="http://www.w3.org/2000/svg">
<path d="M7.67633 38.4097H13.0939C13.9147 38.4103 14.7021 38.0846 15.2828 37.5045V37.5045C15.8629 36.9238 16.1886 36.1364 16.1881 35.3156V22.9345C16.1886 22.1137 15.8629 21.3263 15.2828 20.7456V20.7456C14.7021 20.1655 13.9147 19.8399 13.0939 19.8404H7.67633" stroke="#F4F4F4" stroke-width="1.92642" stroke-linecap="round" stroke-linejoin="round"/>
<path d="M49.4574 19.8404H44.0421C43.2213 19.8399 42.4339 20.1655 41.8533 20.7456V20.7456C41.2731 21.3263 40.9475 22.1137 40.948 22.9345V35.3156C40.9475 36.1364 41.2731 36.9238 41.8533 37.5045V37.5045C42.4339 38.0846 43.2213 38.4103 44.0421 38.4097H49.4574" stroke="#F4F4F4" stroke-width="1.92642" stroke-linecap="round" stroke-linejoin="round"/>
<path d="M40.9944 35.8495H38.9982C38.3343 35.849 37.678 35.9915 37.074 36.2673L27.3088 40.7147" stroke="#F4F4F4" stroke-width="1.92642" stroke-linecap="round" stroke-linejoin="round"/>
<path d="M25.4216 21.9713C24.2459 21.275 22.8221 21.1356 21.5337 21.5906L16.195 23.5148" stroke="#F4F4F4" stroke-width="1.92642" stroke-linecap="round" stroke-linejoin="round"/>
<path d="M41.3194 21.4327L34.6437 18.4941C33.2131 17.8645 31.5616 17.9971 30.2498 18.8469L24.1915 22.772C23.2811 23.3621 22.6962 24.3414 22.6085 25.4228C22.5208 26.5041 22.9401 27.565 23.7435 28.2941V28.2941C24.7864 29.2385 26.2935 29.4662 27.5688 28.872L31.1805 27.1869" stroke="#F4F4F4" stroke-width="1.92642" stroke-linecap="round" stroke-linejoin="round"/>
<path d="M31.1805 27.1846L33.0142 28.8488C33.9823 29.7259 34.536 30.9703 34.5396 32.2766C34.5431 33.5829 33.9961 34.8302 33.0328 35.7125L28.351 39.9974C26.5837 41.615 23.8758 41.622 22.1001 40.0137L18.883 37.096C18.1189 36.4168 17.152 36.0088 16.1324 35.9354" stroke="#F4F4F4" stroke-width="1.92642" stroke-linecap="round" stroke-linejoin="round"/>
<rect x="7.67633" y="7.55908" width="41.781" height="41.781" rx="5.13712" stroke="#F4F4F4" stroke-width="1.92642" stroke-linecap="round" stroke-linejoin="round"/>
</svg>
