<svg width="21" height="21" viewBox="0 0 21 21" fill="none" xmlns="http://www.w3.org/2000/svg">
<path d="M15.3333 4.861H16.7222M6.30555 0.694336H14.6389C17.7071 0.694336 20.1944 3.18164 20.1944 6.24989V14.5832C20.1944 17.6515 17.7071 20.1388 14.6389 20.1388H6.30555C3.23731 20.1388 0.75 17.6515 0.75 14.5832V6.24989C0.75 3.18164 3.23731 0.694336 6.30555 0.694336ZM10.4722 14.5832C8.17103 14.5832 6.30555 12.7177 6.30555 10.4166C6.30555 8.11537 8.17103 6.24989 10.4722 6.24989C12.7734 6.24989 14.6389 8.11537 14.6389 10.4166C14.6389 12.7177 12.7734 14.5832 10.4722 14.5832Z" stroke="#F4F4F4" stroke-width="1.38889"/>
</svg>
