<svg width="33" height="32" viewBox="0 0 33 32" fill="none" xmlns="http://www.w3.org/2000/svg">
<g clip-path="url(#clip0_70_12974)">
<path d="M16.5 4.52109C20.2406 4.52109 20.6836 4.5375 22.1547 4.60312C23.5219 4.66328 24.2602 4.89297 24.7523 5.08438C25.4031 5.33594 25.8734 5.64219 26.3602 6.12891C26.8523 6.62109 27.1531 7.08594 27.4047 7.73672C27.5961 8.22891 27.8258 8.97266 27.8859 10.3344C27.9516 11.8109 27.968 12.2539 27.968 15.9891C27.968 19.7297 27.9516 20.1727 27.8859 21.6438C27.8258 23.0109 27.5961 23.7492 27.4047 24.2414C27.1531 24.8922 26.8469 25.3625 26.3602 25.8492C25.868 26.3414 25.4031 26.6422 24.7523 26.8938C24.2602 27.0852 23.5164 27.3148 22.1547 27.375C20.6781 27.4406 20.2352 27.457 16.5 27.457C12.7594 27.457 12.3164 27.4406 10.8453 27.375C9.47813 27.3148 8.73984 27.0852 8.24766 26.8938C7.59688 26.6422 7.12656 26.3359 6.63984 25.8492C6.14766 25.357 5.84687 24.8922 5.59531 24.2414C5.40391 23.7492 5.17422 23.0055 5.11406 21.6438C5.04844 20.1672 5.03203 19.7242 5.03203 15.9891C5.03203 12.2484 5.04844 11.8055 5.11406 10.3344C5.17422 8.96719 5.40391 8.22891 5.59531 7.73672C5.84687 7.08594 6.15312 6.61562 6.63984 6.12891C7.13203 5.63672 7.59688 5.33594 8.24766 5.08438C8.73984 4.89297 9.48359 4.66328 10.8453 4.60312C12.3164 4.5375 12.7594 4.52109 16.5 4.52109ZM16.5 2C12.6992 2 12.2234 2.01641 10.7305 2.08203C9.24297 2.14766 8.22031 2.38828 7.33438 2.73281C6.41016 3.09375 5.62813 3.56953 4.85156 4.35156C4.06953 5.12812 3.59375 5.91016 3.23281 6.82891C2.88828 7.72031 2.64766 8.7375 2.58203 10.225C2.51641 11.7234 2.5 12.1992 2.5 16C2.5 19.8008 2.51641 20.2766 2.58203 21.7695C2.64766 23.257 2.88828 24.2797 3.23281 25.1656C3.59375 26.0898 4.06953 26.8719 4.85156 27.6484C5.62813 28.425 6.41016 28.9062 7.32891 29.2617C8.22031 29.6062 9.2375 29.8469 10.725 29.9125C12.218 29.9781 12.6937 29.9945 16.4945 29.9945C20.2953 29.9945 20.7711 29.9781 22.2641 29.9125C23.7516 29.8469 24.7742 29.6062 25.6602 29.2617C26.5789 28.9062 27.3609 28.425 28.1375 27.6484C28.9141 26.8719 29.3953 26.0898 29.7508 25.1711C30.0953 24.2797 30.3359 23.2625 30.4016 21.775C30.4672 20.282 30.4836 19.8063 30.4836 16.0055C30.4836 12.2047 30.4672 11.7289 30.4016 10.2359C30.3359 8.74844 30.0953 7.72578 29.7508 6.83984C29.4062 5.91016 28.9305 5.12812 28.1484 4.35156C27.3719 3.575 26.5898 3.09375 25.6711 2.73828C24.7797 2.39375 23.7625 2.15313 22.275 2.0875C20.7766 2.01641 20.3008 2 16.5 2Z" fill="#000100"/>
<path d="M16.5 8.80859C12.5297 8.80859 9.30859 12.0297 9.30859 16C9.30859 19.9703 12.5297 23.1914 16.5 23.1914C20.4703 23.1914 23.6914 19.9703 23.6914 16C23.6914 12.0297 20.4703 8.80859 16.5 8.80859ZM16.5 20.6648C13.9242 20.6648 11.8352 18.5758 11.8352 16C11.8352 13.4242 13.9242 11.3352 16.5 11.3352C19.0758 11.3352 21.1648 13.4242 21.1648 16C21.1648 18.5758 19.0758 20.6648 16.5 20.6648Z" fill="#000100"/>
<path d="M25.6547 8.52425C25.6547 9.45394 24.9 10.2032 23.9758 10.2032C23.0461 10.2032 22.2969 9.44847 22.2969 8.52425C22.2969 7.59456 23.0516 6.84534 23.9758 6.84534C24.9 6.84534 25.6547 7.60003 25.6547 8.52425Z" fill="#000100"/>
</g>
<defs>
<clipPath id="clip0_70_12974">
<rect width="28" height="28" fill="white" transform="translate(2.5 2)"/>
</clipPath>
</defs>
</svg>
