<svg width="56" height="56" viewBox="0 0 56 56" fill="none" xmlns="http://www.w3.org/2000/svg">
<path fill-rule="evenodd" clip-rule="evenodd" d="M31.4196 48.1516V47.2469C31.427 44.6729 33.5118 42.5882 36.0857 42.5808H43.4659C46.0399 42.5882 48.1247 44.6729 48.132 47.2469V48.1516C48.132 48.7669 47.6332 49.2658 47.0179 49.2658H32.5338C31.9184 49.2658 31.4196 48.7669 31.4196 48.1516Z" stroke="#F4F4F4" stroke-width="1.92642" stroke-linecap="round" stroke-linejoin="round"/>
<path fill-rule="evenodd" clip-rule="evenodd" d="M35.486 33.7567C34.9458 31.8208 35.7681 29.7629 37.4936 28.7325C39.2192 27.702 41.4209 27.954 42.869 29.3477C44.3171 30.7413 44.6532 32.9318 43.6896 34.6955C42.726 36.4593 40.7011 37.3598 38.746 36.8941C37.1698 36.5187 35.9215 35.3174 35.486 33.7567Z" stroke="#F4F4F4" stroke-width="1.92642" stroke-linecap="round" stroke-linejoin="round"/>
<path fill-rule="evenodd" clip-rule="evenodd" d="M5.79376 43.695V42.7903C5.80111 40.2164 7.8859 38.1316 10.4599 38.1242H17.8401C20.414 38.1316 22.4988 40.2164 22.5062 42.7903V43.695C22.5062 44.3104 22.0073 44.8092 21.392 44.8092H6.90792C6.29259 44.8092 5.79376 44.3104 5.79376 43.695Z" stroke="#F4F4F4" stroke-width="1.92642" stroke-linecap="round" stroke-linejoin="round"/>
<path fill-rule="evenodd" clip-rule="evenodd" d="M9.86045 29.3001C9.32024 27.3643 10.1426 25.3064 11.8681 24.2759C13.5936 23.2455 15.7954 23.4975 17.2435 24.8911C18.6916 26.2848 19.0277 28.4753 18.0641 30.239C17.1005 32.0027 15.0756 32.9033 13.1205 32.4376C11.5442 32.0622 10.296 30.8608 9.86045 29.3001Z" stroke="#F4F4F4" stroke-width="1.92642" stroke-linecap="round" stroke-linejoin="round"/>
<path d="M39.1516 13.5347C39.1945 13.4927 39.2632 13.4931 39.3055 13.5357C39.3478 13.5783 39.3478 13.647 39.3055 13.6896C39.2632 13.7322 39.1945 13.7327 39.1516 13.6907C39.1301 13.6704 39.1179 13.6422 39.1179 13.6127C39.1179 13.5831 39.1301 13.5549 39.1516 13.5347" stroke="#F4F4F4" stroke-width="1.92642" stroke-linecap="round" stroke-linejoin="round"/>
<path d="M33.3469 13.5347C33.3898 13.4927 33.4585 13.4931 33.5008 13.5357C33.5431 13.5783 33.5431 13.647 33.5008 13.6896C33.4585 13.7322 33.3898 13.7327 33.3469 13.6907C33.3254 13.6704 33.3131 13.6422 33.3131 13.6127C33.3131 13.5831 33.3254 13.5549 33.3469 13.5347" stroke="#F4F4F4" stroke-width="1.92642" stroke-linecap="round" stroke-linejoin="round"/>
<path d="M27.5421 13.5347C27.585 13.4927 27.6537 13.4931 27.696 13.5357C27.7383 13.5783 27.7383 13.647 27.696 13.6896C27.6537 13.7322 27.585 13.7327 27.5421 13.6907C27.5206 13.6704 27.5084 13.6422 27.5084 13.6127C27.5084 13.5831 27.5206 13.5549 27.5421 13.5347" stroke="#F4F4F4" stroke-width="1.92642" stroke-linecap="round" stroke-linejoin="round"/>
<path fill-rule="evenodd" clip-rule="evenodd" d="M28.0769 20.2976V23.6401C28.0758 24.0713 28.3236 24.4645 28.7131 24.6495C29.1027 24.8345 29.564 24.7781 29.8975 24.5047L34.47 20.7812C34.8496 20.4668 35.3275 20.2956 35.8203 20.2976H41.4469C43.9082 20.2976 45.9035 18.3023 45.9035 15.841V11.3843C45.9035 8.92301 43.9082 6.9277 41.4469 6.9277H25.8486C23.3873 6.9277 21.392 8.92301 21.392 11.3843V15.841C21.392 18.3023 23.3873 20.2976 25.8486 20.2976H28.0769Z" stroke="#F4F4F4" stroke-width="1.92642" stroke-linecap="round" stroke-linejoin="round"/>
</svg>
