<svg width="57" height="56" viewBox="0 0 57 56" fill="none" xmlns="http://www.w3.org/2000/svg">
<path fill-rule="evenodd" clip-rule="evenodd" d="M42.1057 28.3915C42.3046 28.7156 42.3971 29.0938 42.3703 29.4731C42.2022 32.5855 39.6825 35.0527 36.5674 35.1553C33.4557 35.0493 30.9404 32.5843 30.7714 29.4755C30.7461 29.0937 30.8393 28.7135 31.0383 28.3868L36.5743 19.0232L42.1057 28.3915Z" stroke="#F4F4F4" stroke-width="1.92642" stroke-linecap="round" stroke-linejoin="round"/>
<path d="M42.3218 28.8882H30.8274" stroke="#F4F4F4" stroke-width="1.92642" stroke-linecap="round" stroke-linejoin="round"/>
<path fill-rule="evenodd" clip-rule="evenodd" d="M25.8575 33.1523C26.0562 33.4756 26.1487 33.853 26.1221 34.2316C25.954 37.3439 23.4343 39.8112 20.3192 39.9138C17.2075 39.8078 14.6922 37.3428 14.5232 34.2339C14.4979 33.8522 14.5911 33.472 14.7901 33.1453L20.3261 23.784L25.8575 33.1523Z" stroke="#F4F4F4" stroke-width="1.92642" stroke-linecap="round" stroke-linejoin="round"/>
<path d="M26.0736 33.6489H14.5792" stroke="#F4F4F4" stroke-width="1.92642" stroke-linecap="round" stroke-linejoin="round"/>
<path d="M36.5746 19.0232L20.3264 23.784" stroke="#F4F4F4" stroke-width="1.92642" stroke-linecap="round" stroke-linejoin="round"/>
<path d="M27.2898 16.702V21.3444" stroke="#F4F4F4" stroke-width="1.92642" stroke-linecap="round" stroke-linejoin="round"/>
<rect x="7.55967" y="7.41743" width="41.781" height="41.781" rx="5.13712" stroke="#F4F4F4" stroke-width="1.92642" stroke-linecap="round" stroke-linejoin="round"/>
</svg>
