<svg width="184" height="158" viewBox="0 0 184 158" fill="none" xmlns="http://www.w3.org/2000/svg">
<path fill-rule="evenodd" clip-rule="evenodd" d="M104.63 2.35454C98.8394 10.8147 0 156.827 0 156.92C0 156.985 4.11947 157.014 9.1543 156.987L18.3086 156.937L65.7659 86.8774L113.223 16.8181L113.272 86.9257L113.32 157.033H120.81H128.301V78.5165V0H117.271H106.241L104.63 2.35454ZM149.831 17.8929L137.712 35.7861V49.1266C137.712 56.4642 137.784 62.4673 137.873 62.4673C137.962 62.4673 144.984 52.2087 153.478 39.6705L168.923 16.8737L168.971 86.9532L169.019 157.033H176.51H184V78.5165V0H172.975H161.95L149.831 17.8929ZM79.5133 121.692C66.4685 140.946 55.7666 156.774 55.7313 156.866C55.6958 156.959 59.7248 157.028 64.8547 157.022L74.0419 157.011L88.7829 135.214L103.524 113.416V100.051C103.524 92.6996 103.458 86.6853 103.378 86.6853C103.297 86.6853 92.558 102.439 79.5133 121.692Z" fill="#AC8B46"/>
</svg>
