<svg width="280" height="74" viewBox="0 0 280 74" fill="none" xmlns="http://www.w3.org/2000/svg">
<g clip-path="url(#clip0_560_57771)">
<path d="M63.3551 0.693298H9.77098C4.88376 0.693298 0.921875 4.71461 0.921875 9.67514V64.063C0.921875 69.0234 4.88376 73.0447 9.77098 73.0447H63.3551C68.2422 73.0447 72.2041 69.0234 72.2041 64.063V9.67514C72.2041 4.71461 68.2422 0.693298 63.3551 0.693298Z" fill="#D4C2B0"/>
<path d="M64.2729 73.0447H36.1716V29.216C36.1716 21.6513 39.1322 14.3965 44.4021 9.04741C49.6724 3.69836 56.82 0.693298 64.2729 0.693298C66.3747 0.693298 68.391 1.54086 69.8771 3.04955C71.3636 4.55822 72.1987 6.60444 72.1987 8.73803V65.0153C72.1945 67.1464 71.3579 69.1887 69.8717 70.6939C68.3858 72.1994 66.3721 73.0447 64.2729 73.0447Z" fill="#C4AFA0"/>
<path d="M46.8015 60.4321L39.7839 67.2069C39.151 67.8101 38.3111 68.1384 37.4432 68.1222C36.5753 68.106 35.7479 67.7462 35.1373 67.1197L28.725 60.4629C28.312 60.037 27.999 59.5219 27.8095 58.9564C27.6199 58.3908 27.5586 57.7889 27.6302 57.1957L33.2756 25.2012C33.3823 24.581 33.7025 24.0195 34.1796 23.6171C34.6564 23.2146 35.2586 22.9974 35.8791 23.0043H40.1422C40.77 22.9946 41.3799 23.2158 41.8592 23.6271C42.3389 24.0385 42.6553 24.6122 42.7505 25.2421L48.0022 57.1445C48.0632 57.7493 47.9866 58.36 47.7784 58.9301C47.5705 59.4999 47.2362 60.014 46.8015 60.4321Z" fill="#C4AFA0"/>
<path d="M45.5404 59.7049L38.5327 66.4746C37.8998 67.0787 37.0593 67.4084 36.1904 67.3928C35.3218 67.3776 34.4931 67.0188 33.881 66.3925L27.4739 59.7357C27.0599 59.3105 26.7463 58.7958 26.5567 58.2299C26.3671 57.6639 26.3063 57.0617 26.3791 56.4686L32.0245 24.474C32.1301 23.8533 32.4502 23.2912 32.9274 22.8886C33.4045 22.486 34.0074 22.2692 34.6279 22.2772H38.891C39.5185 22.2684 40.1277 22.49 40.6071 22.9012C41.0864 23.3124 41.4032 23.8855 41.4993 24.5149L46.7513 56.4122C46.8114 57.0186 46.7335 57.6309 46.5233 58.2017C46.3135 58.7724 45.9773 59.2868 45.5404 59.7049Z" fill="#DDDDDD"/>
<path d="M41.5349 24.6788H37.7665L39.0681 21.806C39.0796 21.7821 39.0965 21.7612 39.1169 21.7447C39.1377 21.7282 39.1616 21.7166 39.1872 21.7107C39.2131 21.7048 39.2396 21.7048 39.2651 21.7106C39.2906 21.7165 39.3146 21.7281 39.3354 21.7446L40.5463 22.7687C40.7257 22.923 40.8675 23.1176 40.9598 23.3371L41.5349 24.6788Z" fill="#DDDDDD"/>
<path d="M44.279 58.6096L37.2614 65.3844C36.6282 65.9885 35.788 66.3178 34.9191 66.3026C34.0505 66.2874 33.2218 65.9286 32.6098 65.3024L26.2025 58.6455C25.7882 58.2206 25.4745 57.7056 25.2848 57.1397C25.0952 56.5737 25.0346 55.9715 25.1077 55.3784L30.7532 23.3837C30.8598 22.764 31.1804 22.2032 31.6574 21.8016C32.1344 21.3999 32.7367 21.1839 33.3566 21.1921H37.6197C38.2469 21.1844 38.8558 21.4064 39.3348 21.8174C39.8138 22.2284 40.1309 22.8008 40.228 23.4298L45.4899 55.2863C45.5544 55.8973 45.4788 56.5154 45.2686 57.092C45.0585 57.6686 44.7197 58.1879 44.279 58.6096Z" fill="white"/>
<path d="M43.6747 9.50079H31.9147C30.6988 9.50079 29.8967 11.0882 30.4012 12.4657L32.4848 18.0269C32.7037 18.5618 33.0671 19.023 33.533 19.3573C33.9989 19.6916 34.5485 19.8855 35.1185 19.9164H40.5216C41.1009 19.8863 41.6594 19.6878 42.131 19.3447C42.6024 19.0015 42.9664 18.5281 43.1804 17.9808L45.1682 12.435C45.6779 11.0575 44.8757 9.50079 43.6747 9.50079Z" fill="#C4AFA0"/>
<path d="M42.4121 8.77368H30.6521C29.4363 8.77368 28.6341 10.356 29.1386 11.7386L31.2222 17.2998C31.4411 17.8346 31.8045 18.2958 32.2705 18.6302C32.7364 18.9645 33.2859 19.1583 33.8559 19.1893H39.2792C39.8584 19.1592 40.4173 18.9607 40.8886 18.6176C41.3599 18.2744 41.7243 17.801 41.9379 17.2537L43.9258 11.7027C44.4153 10.3304 43.6131 8.77368 42.4121 8.77368Z" fill="#DDDDDD"/>
<path d="M30.9359 17.4026L32.3233 18.6059L32.8531 16.9366L30.9359 17.4026Z" fill="#DDDDDD"/>
<path d="M42.6604 9.36795H41.071L41.4897 7.83171C41.4948 7.81314 41.5041 7.79602 41.5165 7.7817C41.5293 7.7674 41.5453 7.75632 41.5628 7.74932C41.5804 7.74235 41.5995 7.73969 41.6184 7.74154C41.6372 7.74342 41.6554 7.74974 41.6714 7.76001L42.2165 8.04679L42.3123 8.10313C42.934 8.56319 43.4587 9.14469 43.8559 9.81345L42.6604 9.36795Z" fill="#DDDDDD"/>
<path d="M41.1512 7.66248H29.391C28.1751 7.66248 27.373 9.24993 27.8775 10.6274L29.9611 16.1937C30.18 16.7286 30.5434 17.1898 31.0093 17.5241C31.4753 17.8584 32.0249 18.0523 32.5947 18.0833H37.9981C38.5777 18.0527 39.1369 17.8534 39.6082 17.5093C40.0798 17.1652 40.4436 16.6908 40.6569 16.1425L42.6444 10.5967C43.1541 9.23456 42.3519 7.66248 41.1512 7.66248Z" fill="white"/>
<path fill-rule="evenodd" clip-rule="evenodd" d="M197.76 32.9294L197.822 49.852L198.326 50.9618C198.984 52.4142 199.917 53.3661 201.295 53.9946C202.268 54.4377 202.772 54.5051 205.147 54.5087C207.364 54.5122 208.17 54.4205 209.411 54.0235C211.859 53.241 211.814 53.3292 211.029 50.8354L210.36 48.7114L209.23 49.1081C206.5 50.0659 204.74 49.4161 204.29 47.2837C204.134 46.5482 204.054 41.0297 204.054 31.0876V16.0067H200.876H197.698L197.76 32.9294ZM91.391 16.578C91.3006 16.6707 91.2272 25.0691 91.2272 35.2412V53.736H96.0376H100.848V47.5481V41.3607L104.292 41.2492C108.194 41.1231 109.445 40.8502 112.178 39.5297C116.36 37.5078 118.619 33.6177 118.619 28.4352C118.619 23.4651 116.71 20.1252 112.765 18.1937C109.785 16.7351 108.972 16.6301 99.7546 16.5134C95.245 16.4561 91.4814 16.4852 91.391 16.578ZM106.739 24.7151C107.99 25.3458 108.649 26.3417 108.84 27.8901C109.349 32.0308 107.31 33.9836 102.477 33.9836H100.848V28.9561V23.9285L103.296 24.0708C105.201 24.1815 105.964 24.3242 106.739 24.7151ZM133.975 24.5144C133.493 24.6767 132.805 24.9681 132.444 25.1621C131.592 25.6197 130.085 27.2254 129.58 28.2132L129.183 28.99L128.833 27.1035L128.484 25.2171L124.724 25.1563C122.656 25.123 120.966 25.1729 120.968 25.2673C120.971 25.3618 121.115 26.4377 121.29 27.6584C121.534 29.3731 121.608 32.5901 121.614 41.807L121.62 53.736H126.212H130.804L130.809 44.914C130.812 40.0619 130.904 35.7002 131.013 35.2215C131.24 34.2297 131.765 33.4375 132.633 32.7805C133.509 32.1164 135.973 32.0257 137.637 32.596C138.329 32.8331 138.894 33.0082 138.894 32.9851C138.894 32.962 139.18 31.5043 139.53 29.7459C140.488 24.9248 140.518 25.3196 139.156 24.8405C137.604 24.2947 135.094 24.1367 133.975 24.5144ZM152.068 24.4645C147.908 25.168 144.457 27.7629 142.436 31.707C141.233 34.0537 140.647 36.3821 140.496 39.4211C140.087 47.6224 143.576 52.9432 150.258 54.3061C152.692 54.8023 156.858 54.6422 159.23 53.9609C161.06 53.4345 164.477 51.8415 164.477 51.5141C164.477 51.3138 162.363 45.8228 162.153 45.4783C162.099 45.3895 161.592 45.605 161.025 45.957C159.794 46.7216 157.797 47.4191 156.237 47.6288C153.252 48.0301 150.473 46.3528 149.949 43.8331L149.805 43.1407L151.946 42.8672C158.127 42.0773 161.97 39.9916 163.521 36.585C164.091 35.3326 164.148 34.9878 164.136 32.8739C164.125 31.0037 164.025 30.293 163.631 29.2739C162.176 25.5198 157.45 23.5541 152.068 24.4645ZM166.133 25.6055C166.218 25.8802 168.527 32.4467 171.266 40.1977L176.244 54.2909L180.068 54.3515L183.892 54.4117L184.104 53.7966C184.395 52.9529 194.027 25.7296 194.157 25.3836C194.238 25.1669 193.234 25.1061 189.574 25.1061H184.886L182.635 32.2636C181.397 36.2003 180.311 39.5605 180.221 39.7307C180.122 39.9193 179.276 37.5992 178.056 33.7947C175.278 25.129 175.256 25.1061 169.5 25.1061H165.978L166.133 25.6055ZM223.123 26.096C217.11 27.4844 213.673 32.2139 213.119 39.8648C212.87 43.2976 213.556 47.3287 214.815 49.8339C215.421 51.0402 217.295 52.88 218.535 53.4864C222.342 55.3494 227.327 54.7145 229.972 52.0295C230.52 51.4733 231.015 51.0655 231.072 51.1232C231.129 51.1809 231.248 51.8175 231.336 52.5377L231.497 53.8468L234.311 53.9094L237.125 53.9716L236.96 53.3545C236.87 53.0148 236.752 47.0753 236.699 40.1549L236.602 27.5725L235.58 27.2323C235.017 27.0454 233.72 26.6825 232.698 26.4262C230.252 25.8125 225.117 25.6354 223.123 26.096ZM243.194 36.4949C243.194 42.8211 243.283 47.0409 243.433 47.8693C244.189 52.0327 246.878 54.2918 251.394 54.556C254.92 54.7621 257.541 53.8092 259.64 51.5569C260.647 50.4763 260.801 50.3829 261.004 50.7297C262.477 53.2407 264.347 54.378 267.311 54.5657C272.849 54.9164 276.804 52.0547 278.579 46.4121C279.358 43.9345 279.573 42.2053 279.571 38.4225C279.568 34.5752 279.279 32.2458 278.344 28.5461L277.839 26.5487L274.729 26.4872C272.874 26.4504 271.619 26.5103 271.619 26.6357C271.619 26.7516 271.864 27.8779 272.164 29.1389C274.071 37.173 273.693 45.0576 271.262 47.9407C270.234 49.1587 269.492 49.5191 268.011 49.5191C266.361 49.5191 265.569 49.065 264.986 47.7835C264.526 46.7748 264.511 46.4552 264.444 36.5912L264.376 26.4377H261.228H258.08L258.016 36.2583L257.953 46.0792L257.34 47.1381C256.428 48.7127 255.29 49.3846 253.369 49.4832C251.92 49.5577 251.754 49.5182 251.078 48.9412C249.637 47.7105 249.651 47.8253 249.578 36.5912L249.511 26.4377H246.352H243.194V36.4949ZM229.582 30.8767L230.293 31.1419V38.2348C230.293 42.6118 230.202 45.6951 230.055 46.287C229.756 47.4937 228.77 48.7221 227.593 49.3541C226.893 49.7305 226.307 49.8429 225.028 49.8471C223.562 49.8514 223.25 49.7752 222.318 49.1863C220.947 48.3192 220.083 46.778 219.679 44.4777C219.14 41.4109 219.355 37.9191 220.251 35.1641C220.987 32.905 222.274 31.4375 224.146 30.7245C225.078 30.3694 228.478 30.4646 229.582 30.8767ZM155.631 31.4213C156.064 31.8603 156.168 32.1903 156.168 33.1237C156.168 34.2028 156.102 34.3457 155.205 35.2185C154.115 36.2781 152.301 37.0651 150.508 37.2557L149.33 37.3811L149.491 36.293C149.986 32.9445 151.722 30.88 154.046 30.8776C154.869 30.8767 155.21 30.9939 155.631 31.4213Z" fill="white"/>
</g>
<defs>
<clipPath id="clip0_560_57771">
<rect width="278.649" height="72.3764" fill="white" transform="translate(0.921875 0.693298)"/>
</clipPath>
</defs>
</svg>
