<svg width="55" height="55" viewBox="0 0 55 55" fill="none" xmlns="http://www.w3.org/2000/svg">
<path d="M27.5 8.79221H42.9064C45.3375 8.79221 47.3082 10.763 47.3082 13.194V24.1986" stroke="#F4F4F4" stroke-width="1.5" stroke-linecap="round" stroke-linejoin="round"/>
<path d="M20.8989 48.4087H12.0952C9.66413 48.4087 7.69336 46.4379 7.69336 44.0069V37.4041" stroke="#F4F4F4" stroke-width="1.5" stroke-linecap="round" stroke-linejoin="round"/>
<path fill-rule="evenodd" clip-rule="evenodd" d="M7.69336 28.6687V27.7751C7.70061 25.2328 9.75976 23.1737 12.3021 23.1664H19.5915C22.1338 23.1737 24.193 25.2328 24.2002 27.7751V28.6687C24.2002 29.2765 23.7075 29.7691 23.0998 29.7691H8.79382C8.18605 29.7691 7.69336 29.2765 7.69336 28.6687Z" stroke="#F4F4F4" stroke-width="1.5" stroke-linecap="round" stroke-linejoin="round"/>
<path fill-rule="evenodd" clip-rule="evenodd" d="M11.545 13.2447C11.5547 10.8159 13.5298 8.85398 15.9585 8.86044C18.3873 8.86692 20.3518 10.8393 20.3486 13.2681C20.3454 15.6969 18.3756 17.6641 15.9468 17.6641C14.7763 17.6641 13.654 17.1979 12.828 16.3686C12.002 15.5393 11.5403 14.4151 11.545 13.2447V13.2447Z" stroke="#F4F4F4" stroke-width="1.5" stroke-linecap="round" stroke-linejoin="round"/>
<path d="M29.7012 48.4087H47.3085" stroke="#F4F4F4" stroke-width="1.5" stroke-linecap="round" stroke-linejoin="round"/>
<path d="M31.9032 48.4087V38.3285" stroke="#F4F4F4" stroke-width="1.5" stroke-linecap="round" stroke-linejoin="round"/>
<path d="M38.5048 48.4087V38.3285" stroke="#F4F4F4" stroke-width="1.5" stroke-linecap="round" stroke-linejoin="round"/>
<path d="M45.1083 48.4087V38.3285" stroke="#F4F4F4" stroke-width="1.5" stroke-linecap="round" stroke-linejoin="round"/>
<path fill-rule="evenodd" clip-rule="evenodd" d="M29.7012 38.3285H47.3085V34.4043L38.5048 30.8014L29.7012 34.4043V38.3285Z" stroke="#F4F4F4" stroke-width="1.5" stroke-linecap="round" stroke-linejoin="round"/>
</svg>
