<svg width="20" height="20" viewBox="0 0 20 20" fill="none" xmlns="http://www.w3.org/2000/svg">
<path d="M2.51806 15.5673L3.11081 15.8637L3.29414 15.497L3.04791 15.1693L2.51806 15.5673ZM4.37339 17.4227L4.77145 16.8928L4.44368 16.6466L4.07702 16.8299L4.37339 17.4227ZM0.66272 19.278L0.0699674 18.9816C-0.057602 19.2368 -0.00759697 19.5449 0.194108 19.7466C0.395813 19.9483 0.703957 19.9983 0.959096 19.8708L0.66272 19.278ZM5.96446 6.02366L5.59685 5.47225C5.41248 5.59516 5.30174 5.80208 5.30174 6.02366H5.96446ZM13.9171 13.9763V14.639C14.1386 14.639 14.3456 14.5282 14.4685 14.3439L13.9171 13.9763ZM8.28961 6.72023L8.94331 6.61128L8.94331 6.61128L8.28961 6.72023ZM8.47444 7.82918L7.82074 7.93813L7.82074 7.93813L8.47444 7.82918ZM7.90225 9.14991L8.26986 9.70133L8.26986 9.70133L7.90225 9.14991ZM14.1054 13.6937L13.554 13.3261L14.1054 13.6937ZM13.2205 11.6511L13.3294 10.9974L13.3294 10.9974L13.2205 11.6511ZM12.1115 11.4663L12.0026 12.12L12.0026 12.12L12.1115 11.4663ZM10.7908 12.0385L10.2394 11.6709L10.2394 11.6709L10.7908 12.0385ZM2.44379e-06 9.99997C2.44379e-06 12.2373 0.739947 14.3038 1.9882 15.9654L3.04791 15.1693C1.96618 13.7294 1.32544 11.9404 1.32544 9.99997H2.44379e-06ZM9.94076 0.0592065C4.45063 0.0592065 2.44379e-06 4.50984 2.44379e-06 9.99997H1.32544C1.32544 5.24185 5.18265 1.38464 9.94076 1.38464V0.0592065ZM19.8815 9.99997C19.8815 4.50984 15.4309 0.0592065 9.94076 0.0592065V1.38464C14.6989 1.38464 18.5561 5.24185 18.5561 9.99997H19.8815ZM9.94076 19.9407C15.4309 19.9407 19.8815 15.4901 19.8815 9.99997H18.5561C18.5561 14.7581 14.6989 18.6153 9.94076 18.6153V19.9407ZM3.97534 17.9525C5.63692 19.2008 7.70339 19.9407 9.94076 19.9407V18.6153C8.00028 18.6153 6.21137 17.9745 4.77145 16.8928L3.97534 17.9525ZM0.959096 19.8708L4.66977 18.0154L4.07702 16.8299L0.366343 18.6853L0.959096 19.8708ZM1.9253 15.271L0.0699674 18.9816L1.25547 19.5744L3.11081 15.8637L1.9253 15.271ZM5.30174 6.02366V7.3491H6.62718V6.02366H5.30174ZM12.5916 14.639H13.9171V13.3136H12.5916V14.639ZM5.30174 7.3491C5.30174 11.3752 8.56554 14.639 12.5916 14.639V13.3136C9.29755 13.3136 6.62718 10.6432 6.62718 7.3491H5.30174ZM6.33207 6.57508L6.6146 6.38672L5.87938 5.28389L5.59685 5.47225L6.33207 6.57508ZM7.63591 6.82918L7.82074 7.93813L9.12814 7.72023L8.94331 6.61128L7.63591 6.82918ZM7.53465 8.5985L6.25957 9.44855L6.99478 10.5514L8.26986 9.70133L7.53465 8.5985ZM7.82074 7.93813C7.86361 8.19537 7.75163 8.45384 7.53464 8.5985L8.26986 9.70133C8.92083 9.26735 9.25676 8.49195 9.12814 7.72023L7.82074 7.93813ZM6.6146 6.38672C7.01474 6.11996 7.55685 6.35482 7.63591 6.82918L8.94331 6.61128C8.70613 5.1882 7.0798 4.48362 5.87938 5.28389L6.6146 6.38672ZM14.4685 14.3439L14.6568 14.0613L13.554 13.3261L13.3657 13.6087L14.4685 14.3439ZM13.3294 10.9974L12.2205 10.8126L12.0026 12.12L13.1115 12.3048L13.3294 10.9974ZM10.2394 11.6709L9.38935 12.9459L10.4922 13.6812L11.3422 12.4061L10.2394 11.6709ZM12.2205 10.8126C11.4488 10.684 10.6734 11.0199 10.2394 11.6709L11.3422 12.4061C11.4869 12.1891 11.7454 12.0771 12.0026 12.12L12.2205 10.8126ZM14.6568 14.0613C15.4571 12.8609 14.7525 11.2346 13.3294 10.9974L13.1115 12.3048C13.5859 12.3839 13.8208 12.926 13.554 13.3261L14.6568 14.0613Z" fill="#F4F4F4"/>
</svg>
