<svg width="33" height="32" viewBox="0 0 33 32" fill="none" xmlns="http://www.w3.org/2000/svg">
<g clip-path="url(#clip0_142_10034)">
<path d="M29.9419 9.21635C29.7836 8.62067 29.4716 8.07701 29.0372 7.63978C28.6027 7.20256 28.0611 6.8871 27.4664 6.72499C25.2773 6.13635 16.5273 6.13635 16.5273 6.13635C16.5273 6.13635 7.77734 6.13635 5.58825 6.72499C4.9936 6.8871 4.45195 7.20256 4.01751 7.63978C3.58308 8.07701 3.2711 8.62067 3.1128 9.21635C2.52734 11.415 2.52734 16 2.52734 16C2.52734 16 2.52734 20.585 3.1128 22.7836C3.2711 23.3793 3.58308 23.923 4.01751 24.3602C4.45195 24.7974 4.9936 25.1129 5.58825 25.275C7.77734 25.8636 16.5273 25.8636 16.5273 25.8636C16.5273 25.8636 25.2773 25.8636 27.4664 25.275C28.0611 25.1129 28.6027 24.7974 29.0372 24.3602C29.4716 23.923 29.7836 23.3793 29.9419 22.7836C30.5273 20.585 30.5273 16 30.5273 16C30.5273 16 30.5273 11.415 29.9419 9.21635Z" fill="#FF0302"/>
<path d="M13.6641 20.1634V11.8366L20.9822 16L13.6641 20.1634Z" fill="#FEFEFE"/>
</g>
<defs>
<clipPath id="clip0_142_10034">
<rect width="28" height="28" fill="white" transform="translate(2.5 2)"/>
</clipPath>
</defs>
</svg>
