<?xml version="1.0" encoding="UTF-8"?>
<svg xmlns="http://www.w3.org/2000/svg" xmlns:xlink="http://www.w3.org/1999/xlink" width="512px" height="512px" viewBox="0 0 512 512" version="1.1">
  <g id="surface1">
    <path style=" stroke:none;fill-rule:evenodd;fill:rgb(67.058824%,54.509804%,28.235294%);fill-opacity:1;" d="M 147.773438 255.035156 C 66.722656 395.289062 0.234375 510.398438 0.0195312 510.835938 C -0.3125 511.507812 3.574219 511.632812 25.125 511.632812 L 50.621094 511.632812 L 182.699219 283.089844 L 314.78125 54.550781 L 314.902344 283.089844 L 315.027344 511.632812 L 356.285156 511.632812 L 356.285156 0 L 325.710938 0.015625 L 295.132812 0.0273438 Z M 416.519531 58.328125 L 382.8125 116.660156 L 382.8125 160.308594 C 382.8125 184.320312 382.976562 203.953125 383.179688 203.945312 C 383.382812 203.933594 402.890625 170.433594 426.527344 129.496094 L 469.507812 55.0625 L 469.632812 283.347656 L 469.753906 511.632812 L 511.503906 511.632812 L 511.503906 0 L 450.226562 0 Z M 286.242188 283.757812 C 282.113281 290.675781 154.894531 511.089844 154.894531 511.328125 C 154.894531 511.496094 166.332031 511.625 180.3125 511.613281 L 205.734375 511.59375 L 246.628906 440.785156 L 287.523438 369.972656 L 287.398438 326 L 287.273438 282.03125 Z M 286.242188 283.757812 "></path>
  </g>
</svg>
